<svg width="188" height="130" viewBox="0 0 188 130" fill="none" xmlns="http://www.w3.org/2000/svg">
<path d="M108.985 30.2793C109.915 29.8918 110.837 29.4815 111.75 29.0487C112.607 28.6442 113.452 28.2173 114.279 27.7507C106.526 15.917 119.83 6.79126 130.334 5.46785C140.988 4.13339 155.533 7.57248 160.712 18.0802C166.14 29.0936 154.561 37.0252 145.041 38.6123C140.431 39.3792 135.655 39.1969 131.101 38.177C129.392 37.795 129.239 37.6908 128.149 38.9269C126.944 40.2978 125.858 41.7531 124.847 43.2706C138.573 47.9035 160.353 46.892 168.579 32.8892C173.862 23.8987 168.767 14.0171 161.185 8.35592C153.499 2.62729 143.635 0 134.142 0C123.563 0 110.444 3.49839 105.207 13.6827C102.549 18.8526 103.123 24.8534 106.072 29.7533C107.036 31.3809 107.369 30.9481 108.985 30.2793Z" fill="white"/>
<path d="M34.4629 44.3045C43.5375 46.836 53.4413 46.3108 62.3397 43.324C61.4966 42.0374 58.9226 37.4996 57.3489 37.9435C55.4469 38.4831 53.4894 38.8565 51.5257 39.0731C46.938 39.5814 42.2267 39.2694 37.7929 37.9409C33.2163 36.5276 28.6958 33.9961 26.214 29.7371C23.444 24.9525 24.5477 19.4312 27.8862 15.2507C34.6865 6.95958 47.1422 4.16396 57.3625 5.7964C67.5354 7.42036 79.5956 16.3266 72.6216 27.6354C73.938 28.3518 78.8928 31.4649 80.0972 30.796C81.089 30.2454 81.8002 27.7337 82.1586 26.7728C84.3209 21.0581 82.9903 14.9133 79.0889 10.3173C72.7421 2.83798 61.9674 0.146226 52.5255 0.169063C44.1342 0.169063 35.5329 2.23686 28.3232 6.61151C21.0969 10.9972 14.3719 18.8331 16.1002 27.8969C17.7864 36.7471 26.4244 42.0628 34.4629 44.3045Z" fill="white"/>
<path d="M136.442 95.31C139.145 100.727 145.996 103.334 151.696 101.249C160.723 97.9454 157.048 87.5946 149.738 84.9117C145.758 83.7121 142.067 83.0067 138.316 80.8012C131.132 76.5812 124.814 70.3889 120.228 63.4322C118.217 60.381 115.94 56.5993 116.052 52.8008C116.162 49.0585 118.038 45.3863 119.996 42.2872C124.25 35.5497 130.913 29.1382 138.86 27.2696C141.747 26.6685 145.657 25.8593 145.778 22.0357C145.999 14.9781 134.126 14.0061 130.006 17.3045C129.146 17.9899 128.769 18.597 128.373 19.5436C127.558 21.4964 126.869 23.067 125.284 24.6545C119.458 30.4759 110.82 33.9401 103.017 36.0642C94.6844 38.3287 87.1923 37.3792 79.1201 34.4742C72.3558 32.038 62.4271 28.0428 59.1668 21.0161C58.8364 20.3053 58.786 19.5299 58.4273 18.8305C56.9931 16.2536 53.6576 15.3604 50.918 15.3604C47.1565 15.3494 40.2299 17.7542 41.4009 22.7749C42.0592 25.5956 44.7592 26.6074 47.2461 27.0932C53.4336 28.3072 58.6572 32.027 62.8611 36.6432C67.7766 42.04 73.0869 49.9945 70.1431 57.5069C67.1884 65.0451 61.0626 71.6729 54.8535 76.677C50.148 80.47 45.025 83.2708 39.1434 84.6421C33.8074 85.8867 27.8223 91.1939 30.8079 97.1815C32.6034 100.783 36.9362 102.199 40.7146 101.896C43.6499 101.66 49.4786 99.7635 50.4226 96.4423C51.4508 92.8153 53.9513 89.7862 56.663 87.2635C62.7965 81.5599 70.583 77.4998 78.3666 74.5782C86.2597 71.6139 93.7661 70.2684 102.02 72.3951C110.271 74.5219 118.349 78.2251 125.354 83.0885C130.107 86.3928 133.863 90.1405 136.442 95.31Z" fill="white"/>
<path d="M50.9176 15.3604C51.1868 15.3604 50.0635 15.3575 50.9176 15.3604Z" fill="white"/>
<path d="M183.525 83.0406C175.164 69.2456 158.536 61.6119 142.764 61.6119C137.319 61.6119 131.832 62.5026 126.734 64.4466C128.196 66.3571 129.81 68.1498 131.518 69.8441C132.88 71.1929 133.451 70.5774 135.196 70.1306C137.974 69.4028 140.851 69.0713 143.719 69.0713C151.248 69.0713 158.84 71.3837 165.053 75.66C171.649 80.175 176.962 87.3449 177.461 95.5461C177.918 103.092 173.991 110.027 167.803 114.163C154.628 122.97 135.232 119.596 124.323 108.644C118.785 103.087 115.307 95.1583 116.995 87.2524C117.18 86.3839 117.424 85.5272 117.721 84.6926C118.166 83.4365 117.645 83.6023 116.595 83.0097C115.144 82.1949 113.662 81.4361 112.158 80.7253C111.34 80.3404 109.682 79.2785 109.038 79.638C108.864 79.7363 108.792 80.2251 108.657 80.3853C100.966 96.9226 112.217 114.412 126.616 122.529C140.442 130.289 158.653 131.795 172.766 123.886C187.656 115.539 192.42 97.7233 183.525 83.0406Z" fill="white"/>
<path d="M70.4119 83.1474C69.2887 83.774 69.8993 84.1478 70.3197 85.2742C70.7758 86.4933 71.0956 87.7578 71.3001 89.0444C72.5827 97.1557 68.6615 105.093 62.7854 110.482C51.4195 120.905 31.9396 123.717 19.1846 114.168C12.9072 109.47 9.50704 101.795 10.8289 93.9785C12.1846 85.9626 17.8705 79.3433 24.637 75.2158C31.2247 71.1981 39.1118 69.2736 46.8003 69.8102C48.7776 69.9564 50.7439 70.254 52.668 70.7373C54.3288 71.1535 54.0934 71.0802 55.2923 70.2795C57.2277 68.9844 58.8856 66.5398 60.3143 64.7332C55.4858 63.0447 50.3936 62.2329 45.282 62.2329C29.3083 62.2329 12.453 70.0239 4.18761 84.1508C-4.93183 99.7351 1.44546 118.163 17.4805 125.828C32.3475 132.936 50.9202 130.588 64.4818 121.619C78.1052 112.614 87.2896 94.7597 78.4584 79.2166C75.6972 80.3544 73.0197 81.6922 70.4119 83.1474Z" fill="white"/>
</svg>
