<svg width="296" height="109" viewBox="0 0 296 109" fill="none" xmlns="http://www.w3.org/2000/svg">
<path fill-rule="evenodd" clip-rule="evenodd" d="M92.7817 78.8529V81.669L112.315 82.021H131.472V79.1159H112.69L92.7817 78.8529Z" fill="black"/>
<path d="M252.394 0C252.394 0 233.023 31.6644 229.244 37.7663C221.718 49.9223 221.005 52.3259 224.114 55.0639C228.534 58.9545 234.402 56.2939 240.015 47.8545C245.88 39.0357 253.929 37.415 253.929 45.0524C253.929 51.2543 248.464 55.8996 238.16 58.4574C227.938 60.9941 209.529 79.4372 215.188 81.4726C215.916 81.7345 217.356 80.2236 219.647 76.7956C225.723 67.7001 232.452 62.6542 241.42 60.4647C254.26 57.3303 261.487 45.7016 254.278 39.7707C248.883 35.331 242.66 37.7614 237.506 46.3197C235.032 50.4292 231.275 53.7784 229.141 53.7784C224.798 53.7784 224.283 51.3607 227.528 46.2035C228.708 44.3273 230.566 41.2943 231.656 39.4645C240.633 24.3972 252.004 6.65392 252.394 7.10803C252.656 7.41359 254.96 11.9406 257.513 17.1681C260.066 22.3956 287.736 79.1239 287.736 79.1239L282.477 79.2049V81.317C286.234 81.317 296 81.317 296 81.317V79.1239H290.741L254.68 4.22425L256.558 1.40808L252.394 0Z" fill="black"/>
<path d="M141.701 1.28067L138.172 0.724176C138.172 0.724176 170.965 81.0959 171.289 81.4726L181.084 62.2269C186.734 49.6872 209.228 0.724176 209.228 0.724176L205.472 1.28067C205.472 1.28067 175.95 66.0984 171.801 75.3587C171.669 75.4833 170.684 73.2923 169.613 70.4902C168.543 67.6881 141.701 1.28067 141.701 1.28067Z" fill="black"/>
<path d="M54.9809 2.46415C41.4813 4.22567 37.9391 12.6728 49.3013 17.6131C62.7768 19.402 64.854 23.1651 65.2267 46.457C65.6789 74.711 65.2267 78.8529 65.2267 78.8529C59.4825 70.7007 47.2548 55.7863 35.0076 47.211C16.7586 34.4333 7.17312 22.8814 8.62908 10.9028H4.31454C4.31454 10.9028 3.75635 44.2364 3.75635 58.8897V85.1702H0V87.3805H12.0203V85.1702H7.17312V34.2257C7.67947 23.4024 7.17312 23.3126 9.84688 27.1162C14.7294 35.4831 20.551 41.0387 33.4315 49.6217C47.9099 59.2699 64.6091 79.5836 64.6091 85.9524C66.4873 85.9524 66.4873 85.9524 67.494 85.9524C67.494 84.8274 68.4932 33.1971 67.2574 28.8961C64.8458 20.5039 61.6086 17.6708 51.8398 15.4066C38.187 12.2412 45.1122 5.15289 61.9797 5.02757C76.2944 4.92055 78.579 8.20492 75.1269 23.9276C71.7515 39.3025 75.4116 48.1044 84.5148 46.5042C91.5511 45.2671 92.9958 40.9697 89.0968 32.8767C79.0853 12.0976 113.792 -0.403423 131.392 17.6426C153.798 40.6184 131.148 76.0402 100.4 66.1082C97.3389 65.1198 96.6455 65.0853 96.1114 65.8956C93.6412 69.6411 113.41 72.2539 122.233 69.3483C140.161 63.4427 149.127 38.0183 138.172 22.8814C122.832 -4.32071 77.7563 5.63235 85.7897 32.7324C89.2801 39.7285 89.1523 41.9054 85.1714 43.324C77.688 45.9902 74.9962 38.6055 78.1387 24.0353C82.1175 5.59221 75.8369 -0.25768 54.9809 2.46415Z" fill="black"/>
<path d="M4.31454 10.9028H8.62908H12.3959V8.52765H0.375635V10.9028H4.31454Z" fill="black"/>
<path d="M157.364 96.4962C157.364 96.8867 157.34 97.2997 157.292 97.7353H146.762C146.842 98.9519 147.283 99.9056 148.084 100.597C148.902 101.272 149.887 101.61 151.041 101.61C151.987 101.61 152.772 101.408 153.397 101.002C154.038 100.582 154.487 100.026 154.743 99.3349H157.099C156.747 100.521 156.042 101.49 154.984 102.241C153.926 102.977 152.612 103.345 151.041 103.345C149.791 103.345 148.669 103.082 147.675 102.557C146.698 102.031 145.928 101.287 145.368 100.326C144.807 99.3499 144.526 98.2234 144.526 96.9468C144.526 95.6701 144.799 94.5511 145.344 93.5899C145.888 92.6286 146.65 91.8927 147.627 91.382C148.621 90.8563 149.759 90.5935 151.041 90.5935C152.291 90.5935 153.397 90.8488 154.359 91.3595C155.32 91.8702 156.058 92.5761 156.57 93.4772C157.099 94.3634 157.364 95.3697 157.364 96.4962ZM155.104 96.0681C155.104 95.2871 154.92 94.6187 154.551 94.063C154.182 93.4923 153.678 93.0642 153.037 92.7788C152.411 92.4784 151.714 92.3282 150.945 92.3282C149.839 92.3282 148.894 92.6587 148.108 93.3195C147.339 93.9804 146.898 94.8966 146.786 96.0681H155.104Z" fill="black"/>
<path d="M172.536 103.142L169.411 98.5464L166.406 103.142H164.122L168.377 97.0144L164.122 90.7963H166.598L169.724 95.3697L172.705 90.7963H174.988L170.757 96.9017L175.012 103.142H172.536Z" fill="black"/>
<path d="M184.761 93.0717C185.194 92.3658 185.835 91.78 186.685 91.3144C187.55 90.8338 188.552 90.5935 189.69 90.5935C190.86 90.5935 191.917 90.8563 192.863 91.382C193.825 91.9077 194.578 92.6512 195.123 93.6124C195.668 94.5587 195.94 95.6626 195.94 96.9242C195.94 98.1709 195.668 99.2823 195.123 100.259C194.578 101.235 193.825 101.993 192.863 102.534C191.917 103.075 190.86 103.345 189.69 103.345C188.568 103.345 187.574 103.112 186.709 102.647C185.859 102.166 185.21 101.573 184.761 100.867V109H182.574V90.7963H184.761V93.0717ZM193.704 96.9242C193.704 95.993 193.504 95.182 193.103 94.4911C192.703 93.8002 192.158 93.2745 191.469 92.914C190.795 92.5535 190.05 92.3733 189.233 92.3733C188.432 92.3733 187.686 92.5611 186.997 92.9365C186.324 93.297 185.779 93.8302 185.362 94.5361C184.962 95.227 184.761 96.0306 184.761 96.9468C184.761 97.878 184.962 98.6966 185.362 99.4025C185.779 100.093 186.324 100.627 186.997 101.002C187.686 101.363 188.432 101.543 189.233 101.543C190.05 101.543 190.795 101.363 191.469 101.002C192.158 100.627 192.703 100.093 193.103 99.4025C193.504 98.6966 193.704 97.8705 193.704 96.9242Z" fill="black"/>
<path d="M206.417 86.4706V103.142H204.229V86.4706H206.417Z" fill="black"/>
<path d="M221.3 103.345C220.066 103.345 218.944 103.082 217.934 102.557C216.941 102.031 216.155 101.287 215.578 100.326C215.017 99.3499 214.737 98.2234 214.737 96.9468C214.737 95.6851 215.025 94.5737 215.602 93.6124C216.195 92.6362 216.997 91.8927 218.006 91.382C219.016 90.8563 220.146 90.5935 221.396 90.5935C222.646 90.5935 223.776 90.8563 224.786 91.382C225.796 91.8927 226.589 92.6286 227.166 93.5899C227.759 94.5511 228.055 95.6701 228.055 96.9468C228.055 98.2234 227.751 99.3499 227.142 100.326C226.549 101.287 225.74 102.031 224.714 102.557C223.688 103.082 222.55 103.345 221.3 103.345ZM221.3 101.543C222.085 101.543 222.823 101.37 223.512 101.025C224.201 100.679 224.754 100.161 225.171 99.4701C225.603 98.7792 225.82 97.9381 225.82 96.9468C225.82 95.9555 225.611 95.1144 225.195 94.4235C224.778 93.7326 224.233 93.2219 223.56 92.8915C222.887 92.546 222.157 92.3733 221.372 92.3733C220.571 92.3733 219.834 92.546 219.16 92.8915C218.503 93.2219 217.974 93.7326 217.574 94.4235C217.173 95.1144 216.973 95.9555 216.973 96.9468C216.973 97.9531 217.165 98.8017 217.55 99.4926C217.95 100.183 218.479 100.702 219.136 101.047C219.793 101.378 220.515 101.543 221.3 101.543Z" fill="black"/>
<path d="M238.529 92.8014C238.913 92.0954 239.458 91.5472 240.163 91.1567C240.885 90.7662 241.758 90.571 242.784 90.571V92.6887H242.207C239.755 92.6887 238.529 93.9353 238.529 96.4286V103.142H236.341V90.7963H238.529V92.8014Z" fill="black"/>
<path d="M262.739 96.4962C262.739 96.8867 262.715 97.2997 262.667 97.7353H252.137C252.217 98.9519 252.658 99.9056 253.459 100.597C254.276 101.272 255.262 101.61 256.416 101.61C257.362 101.61 258.147 101.408 258.772 101.002C259.413 100.582 259.862 100.026 260.118 99.3349H262.474C262.122 100.521 261.416 101.49 260.359 102.241C259.301 102.977 257.987 103.345 256.416 103.345C255.166 103.345 254.044 103.082 253.05 102.557C252.073 102.031 251.303 101.287 250.742 100.326C250.181 99.3499 249.901 98.2234 249.901 96.9468C249.901 95.6701 250.173 94.5511 250.718 93.5899C251.263 92.6286 252.025 91.8927 253.002 91.382C253.996 90.8563 255.134 90.5935 256.416 90.5935C257.666 90.5935 258.772 90.8488 259.734 91.3595C260.695 91.8702 261.432 92.5761 261.945 93.4772C262.474 94.3634 262.739 95.3697 262.739 96.4962ZM260.479 96.0681C260.479 95.2871 260.295 94.6187 259.926 94.063C259.557 93.4923 259.052 93.0642 258.411 92.7788C257.786 92.4784 257.089 92.3282 256.32 92.3282C255.214 92.3282 254.268 92.6587 253.483 93.3195C252.714 93.9804 252.273 94.8966 252.161 96.0681H260.479Z" fill="black"/>
<path d="M273.223 92.8014C273.608 92.0954 274.153 91.5472 274.858 91.1567C275.579 90.7662 276.453 90.571 277.478 90.571V92.6887H276.901C274.449 92.6887 273.223 93.9353 273.223 96.4286V103.142H271.036V90.7963H273.223V92.8014Z" fill="black"/>
<path d="M290.077 103.345C289.067 103.345 288.162 103.187 287.36 102.872C286.559 102.542 285.926 102.091 285.461 101.52C284.996 100.934 284.74 100.266 284.692 99.5151H286.952C287.016 100.131 287.32 100.634 287.865 101.025C288.426 101.415 289.155 101.61 290.053 101.61C290.886 101.61 291.543 101.438 292.024 101.092C292.505 100.747 292.745 100.311 292.745 99.7855C292.745 99.2448 292.489 98.8467 291.976 98.5914C291.463 98.3211 290.67 98.0582 289.596 97.8029C288.618 97.5626 287.817 97.3223 287.192 97.0819C286.583 96.8266 286.054 96.4586 285.605 95.978C285.173 95.4824 284.956 94.8365 284.956 94.0405C284.956 93.4097 285.157 92.8314 285.557 92.3057C285.958 91.78 286.527 91.367 287.264 91.0666C288.001 90.7512 288.843 90.5935 289.788 90.5935C291.247 90.5935 292.425 90.9389 293.322 91.6298C294.22 92.3207 294.701 93.267 294.765 94.4685H292.577C292.529 93.8227 292.249 93.3045 291.736 92.914C291.239 92.5235 290.566 92.3282 289.716 92.3282C288.931 92.3282 288.306 92.4859 287.841 92.8014C287.376 93.1168 287.144 93.5298 287.144 94.0405C287.144 94.446 287.28 94.7839 287.553 95.0543C287.841 95.3096 288.194 95.5199 288.61 95.6851C289.043 95.8353 289.636 96.008 290.389 96.2033C291.335 96.4436 292.104 96.6839 292.697 96.9242C293.29 97.1495 293.795 97.495 294.212 97.9606C294.645 98.4262 294.869 99.0345 294.885 99.7855C294.885 100.461 294.685 101.07 294.284 101.61C293.883 102.151 293.314 102.579 292.577 102.895C291.856 103.195 291.022 103.345 290.077 103.345Z" fill="black"/>
</svg>
